<?xml version="1.0" encoding="UTF-8" standalone="no"?>
<svg
   xmlns:dc="http://purl.org/dc/elements/1.1/"
   xmlns:cc="http://creativecommons.org/ns#"
   xmlns:rdf="http://www.w3.org/1999/02/22-rdf-syntax-ns#"
   xmlns:svg="http://www.w3.org/2000/svg"
   xmlns="http://www.w3.org/2000/svg"
   xmlns:sodipodi="http://sodipodi.sourceforge.net/DTD/sodipodi-0.dtd"
   xmlns:inkscape="http://www.inkscape.org/namespaces/inkscape"
   width="128"
   height="128"
   viewBox="0 0 96 96.000001"
   xml:space="preserve"
   version="1.1"
   id="svg28"
   sodipodi:docname="cs-pg.svg"
   inkscape:version="0.92.2 (5c3e80d, 2017-08-06)"
   inkscape:export-filename="D:\home\pascal\projects\pgtools\cs-pg.png"
   inkscape:export-xdpi="192"
   inkscape:export-ydpi="192"><metadata
     id="metadata34"><rdf:RDF><cc:Work
         rdf:about=""><dc:format>image/svg+xml</dc:format><dc:type
           rdf:resource="http://purl.org/dc/dcmitype/StillImage" /><dc:title /></cc:Work></rdf:RDF></metadata><defs
     id="defs32" /><sodipodi:namedview
     pagecolor="#ffffff"
     bordercolor="#666666"
     borderopacity="1"
     objecttolerance="10"
     gridtolerance="10"
     guidetolerance="10"
     inkscape:pageopacity="0"
     inkscape:pageshadow="2"
     inkscape:window-width="1440"
     inkscape:window-height="837"
     id="namedview30"
     showgrid="false"
     inkscape:zoom="1.8230097"
     inkscape:cx="-16.657729"
     inkscape:cy="134.03288"
     inkscape:window-x="1352"
     inkscape:window-y="-8"
     inkscape:window-maximized="1"
     inkscape:current-layer="g849"
     units="px" /><g
     id="g1413"
     transform="matrix(1.0597101,0,0,1.0597101,-4.0705531,-1.2726236)"><g
       transform="matrix(0.20368137,0,0,0.20368137,10.429161,69.51601)"
       id="g849"><g
         id="orginal"
         style="clip-rule:nonzero;fill-rule:nonzero;stroke:#000000;stroke-miterlimit:4"
         transform="matrix(0.8499012,0,0,0.84971787,17.614943,-331.09059)" /><path
         style="color:#000000;display:inline;overflow:visible;visibility:visible;opacity:0.98999999;fill:#aa0000;fill-opacity:1;fill-rule:nonzero;stroke:#000000;stroke-width:5.11436796;stroke-linecap:butt;stroke-linejoin:miter;stroke-miterlimit:4;stroke-dasharray:none;stroke-dashoffset:0;stroke-opacity:1;marker:none;filter:url(#filter3370-174-1);enable-background:accumulate"
         d="m 100.18692,-304.56852 c -20.550763,0.0857 -19.865277,0.84157 -49.056655,-2.46485 10.523982,30.44071 65.489235,36.77311 65.489235,36.77311 -32.304002,11.83663 -51.705893,65.45677 -52.29872,89.58875 0,88.236218 64.17599,129.833431 135.96708,129.833431 h 94.96099 c 30.84239,0 29.79375,-46.239042 -1.90093,-46.239042 H 215.4526 c -69.28671,0 -101.91905,-40.944769 -101.52106,-84.044839 0.39206,-42.45821 28.3905,-80.77554 101.52106,-81.05055 l 144.36488,-0.54204 c -24.41187,-30.86321 -49.94721,-41.05433 -71.4734,-42.9603 l -188.157,1.10404 z m 115.54575,63.70911 c -50.57195,0.19966 -79.08223,24.46406 -79.11335,59.73885 -0.0284,32.29904 28.02516,60.71623 76.18593,60.71623 h 69.3104 c 45.03636,0 63.7677,22.172112 63.58529,48.237733 -0.16539,23.431337 -12.72507,42.609395 -57.76147,42.609395 H 145.01918 C 105.59002,-31.268884 77.186643,-0.91490842 66.710106,26.45788 89.602953,19.154948 106.70336,17.675187 128.3651,17.312605 h 169.18759 c 34.64339,0 92.0163,-19.3717914 92.0163,-89.960183 0,-70.588982 -53.00595,-90.344162 -87.64924,-90.437742 l -100.97658,-0.25678 c -7.87059,-0.0233 -14.61745,-9.85079 -14.45888,-17.25383 0.15466,-7.11065 7.27181,-15.97294 14.58428,-15.99778 l 158.74871,-0.54201 c 23.33286,-0.0857 26.06694,-44.34962 0,-44.25377 z"
         id="use3118"
         inkscape:connector-curvature="0"
         sodipodi:nodetypes="ccccssssascccccsascccssssasssssc"
         inkscape:export-filename="W:\home\art\creativesolution\icon-16.png"
         inkscape:export-xdpi="20.63209"
         inkscape:export-ydpi="20.63209" /><g
         id="Layer_x0020_3"
         style="clip-rule:nonzero;fill:none;fill-rule:nonzero;stroke:#ffffff;stroke-width:12.46510029;stroke-linecap:round;stroke-linejoin:round;stroke-miterlimit:4"
         transform="matrix(0.40608375,0,0,0.40599616,13.354675,-98.15542)"><path
           style="fill:#000000;stroke:#000000;stroke-width:37.39530182;stroke-linecap:butt;stroke-linejoin:miter"
           d="m 323.205,324.227 c 2.833,-23.601 1.984,-27.062 19.563,-23.239 l 4.463,0.392 c 13.517,0.615 31.199,-2.174 41.587,-7 22.362,-10.376 35.622,-27.7 13.572,-23.148 -50.297,10.376 -53.755,-6.655 -53.755,-6.655 C 401.746,185.774 423.948,85.741 404.784,61.255 352.514,-5.534 262.036,26.049 260.522,26.869 l -0.482,0.089 c -9.938,-2.062 -21.06,-3.294 -33.554,-3.496 -22.761,-0.374 -40.032,5.967 -53.133,15.904 0,0 -161.408,-66.498 -153.899,83.628 1.597,31.936 45.777,241.655 98.47,178.31 19.259,-23.163 37.871,-42.748 37.871,-42.748 9.242,6.14 20.307,9.272 31.912,8.147 l 0.897,-0.765 c -0.281,2.876 -0.157,5.689 0.359,9.019 -13.572,15.167 -9.584,17.83 -36.723,23.416 -27.457,5.659 -11.326,15.734 -0.797,18.367 12.768,3.193 42.305,7.716 62.268,-20.224 l -0.795,3.188 c 5.325,4.26 4.965,30.619 5.72,49.452 0.756,18.834 2.017,36.409 5.856,46.771 3.839,10.36 8.369,37.05 44.036,29.406 29.809,-6.388 52.6,-15.582 54.677,-101.107"
           id="path3"
           inkscape:connector-curvature="0" /><path
           style="fill:#336791;stroke:none"
           d="m 402.395,271.23 c -50.302,10.376 -53.76,-6.655 -53.76,-6.655 53.111,-78.808 75.313,-178.843 56.153,-203.326 -52.27,-66.785 -142.752,-35.2 -144.262,-34.38 l -0.486,0.087 c -9.938,-2.063 -21.06,-3.292 -33.56,-3.496 -22.761,-0.373 -40.026,5.967 -53.127,15.902 0,0 -161.411,-66.495 -153.904,83.63 1.597,31.938 45.776,241.657 98.471,178.312 19.26,-23.163 37.869,-42.748 37.869,-42.748 9.243,6.14 20.308,9.272 31.908,8.147 l 0.901,-0.765 c -0.28,2.876 -0.152,5.689 0.361,9.019 -13.575,15.167 -9.586,17.83 -36.723,23.416 -27.459,5.659 -11.328,15.734 -0.796,18.367 12.768,3.193 42.307,7.716 62.266,-20.224 l -0.796,3.188 c 5.319,4.26 9.054,27.711 8.428,48.969 -0.626,21.259 -1.044,35.854 3.147,47.254 4.191,11.4 8.368,37.05 44.042,29.406 29.809,-6.388 45.256,-22.942 47.405,-50.555 1.525,-19.631 4.976,-16.729 5.194,-34.28 l 2.768,-8.309 c 3.192,-26.611 0.507,-35.196 18.872,-31.203 l 4.463,0.392 c 13.517,0.615 31.208,-2.174 41.591,-7 22.358,-10.376 35.618,-27.7 13.573,-23.148 z"
           id="path5"
           inkscape:connector-curvature="0" /><path
           d="m 215.866,286.484 c -1.385,49.516 0.348,99.377 5.193,111.495 4.848,12.118 15.223,35.688 50.9,28.045 29.806,-6.39 40.651,-18.756 45.357,-46.051 3.466,-20.082 10.148,-75.854 11.005,-87.281"
           id="path7"
           inkscape:connector-curvature="0" /><path
           d="m 173.104,38.256 c 0,0 -161.521,-66.016 -154.012,84.109 1.597,31.938 45.779,241.664 98.473,178.316 19.256,-23.166 36.671,-41.335 36.671,-41.335"
           id="path9"
           inkscape:connector-curvature="0" /><path
           d="m 260.349,26.207 c -5.591,1.753 89.848,-34.889 144.087,34.417 19.159,24.484 -3.043,124.519 -56.153,203.329"
           id="path11"
           inkscape:connector-curvature="0" /><path
           style="stroke-linejoin:bevel"
           d="m 348.282,263.953 c 0,0 3.461,17.036 53.764,6.653 22.04,-4.552 8.776,12.774 -13.577,23.155 -18.345,8.514 -59.474,10.696 -60.146,-1.069 -1.729,-30.355 21.647,-21.133 19.96,-28.739 -1.525,-6.85 -11.979,-13.573 -18.894,-30.338 -6.037,-14.633 -82.796,-126.849 21.287,-110.183 3.813,-0.789 -27.146,-99.002 -124.553,-100.599 -97.385,-1.597 -94.19,119.762 -94.19,119.762"
           id="path13"
           inkscape:connector-curvature="0" /><path
           d="m 188.604,274.334 c -13.577,15.166 -9.584,17.829 -36.723,23.417 -27.459,5.66 -11.326,15.733 -0.797,18.365 12.768,3.195 42.307,7.718 62.266,-20.229 6.078,-8.509 -0.036,-22.086 -8.385,-25.547 -4.034,-1.671 -9.428,-3.765 -16.361,3.994 z"
           id="path15"
           inkscape:connector-curvature="0" /><path
           d="m 187.715,274.069 c -1.368,-8.917 2.93,-19.528 7.536,-31.942 6.922,-18.626 22.893,-37.255 10.117,-96.339 -9.523,-44.029 -73.396,-9.163 -73.436,-3.193 -0.039,5.968 2.889,30.26 -1.067,58.548 -5.162,36.913 23.488,68.132 56.479,64.938"
           id="path17"
           inkscape:connector-curvature="0" /><path
           style="fill:#ffffff;stroke-width:4.15500021;stroke-linecap:butt;stroke-linejoin:miter"
           d="m 172.517,141.7 c -0.288,2.039 3.733,7.48 8.976,8.207 5.234,0.73 9.714,-3.522 9.998,-5.559 0.284,-2.039 -3.732,-4.285 -8.977,-5.015 -5.237,-0.731 -9.719,0.333 -9.996,2.367 z"
           id="path19"
           inkscape:connector-curvature="0" /><path
           style="fill:#ffffff;stroke-width:2.0775001;stroke-linecap:butt;stroke-linejoin:miter"
           d="m 331.941,137.543 c 0.284,2.039 -3.732,7.48 -8.976,8.207 -5.238,0.73 -9.718,-3.522 -10.005,-5.559 -0.277,-2.039 3.74,-4.285 8.979,-5.015 5.239,-0.73 9.718,0.333 10.002,2.368 z"
           id="path21"
           inkscape:connector-curvature="0" /><path
           d="m 350.676,123.432 c 0.863,15.994 -3.445,26.888 -3.988,43.914 -0.804,24.748 11.799,53.074 -7.191,81.435"
           id="path23"
           inkscape:connector-curvature="0" /><path
           style="stroke-width:3"
           d="M 0,60.232"
           id="path25"
           inkscape:connector-curvature="0" /></g></g></g></svg>