<?xml version="1.0" encoding="UTF-8" standalone="no"?>
<svg
   xmlns:dc="http://purl.org/dc/elements/1.1/"
   xmlns:cc="http://creativecommons.org/ns#"
   xmlns:rdf="http://www.w3.org/1999/02/22-rdf-syntax-ns#"
   xmlns:svg="http://www.w3.org/2000/svg"
   xmlns="http://www.w3.org/2000/svg"
   xmlns:sodipodi="http://sodipodi.sourceforge.net/DTD/sodipodi-0.dtd"
   xmlns:inkscape="http://www.inkscape.org/namespaces/inkscape"
   width="128"
   height="128"
   viewBox="0 0 96 96.000001"
   xml:space="preserve"
   version="1.1"
   id="svg28"
   sodipodi:docname="postgresql_elephant.svg"
   inkscape:version="0.92.2 (5c3e80d, 2017-08-06)"
   inkscape:export-filename="D:\home\pascal\projects\pgtools\postgresql_elephant.png"
   inkscape:export-xdpi="96"
   inkscape:export-ydpi="96"><metadata
     id="metadata34"><rdf:RDF><cc:Work
         rdf:about=""><dc:format>image/svg+xml</dc:format><dc:type
           rdf:resource="http://purl.org/dc/dcmitype/StillImage" /><dc:title></dc:title></cc:Work></rdf:RDF></metadata><defs
     id="defs32" /><sodipodi:namedview
     pagecolor="#ffffff"
     bordercolor="#666666"
     borderopacity="1"
     objecttolerance="10"
     gridtolerance="10"
     guidetolerance="10"
     inkscape:pageopacity="0"
     inkscape:pageshadow="2"
     inkscape:window-width="1440"
     inkscape:window-height="837"
     id="namedview30"
     showgrid="false"
     inkscape:zoom="5.6568543"
     inkscape:cx="18.780284"
     inkscape:cy="50.171581"
     inkscape:window-x="1352"
     inkscape:window-y="-8"
     inkscape:window-maximized="1"
     inkscape:current-layer="g849"
     units="px" /><g
     id="g849"
     transform="matrix(0.20368137,0,0,0.20368137,4.3971336,73.971951)"><g
       transform="matrix(0.8499012,0,0,0.84971787,17.614943,-331.09059)"
       style="clip-rule:nonzero;fill-rule:nonzero;stroke:#000000;stroke-miterlimit:4"
       id="orginal" /><path
       style="fill:#d8a820;stroke:#682c00;stroke-width:9.20555496;stroke-miterlimit:4;stroke-dasharray:none"
       sodipodi:nodetypes="ccacccassccccccacsccasccssccc"
       inkscape:connector-curvature="0"
       id="path2"
       d="m 204.92238,-26.986061 -30.51461,8.23418 c -10.29375,-11.89698 -40.07711,-22.78243 -60.17585,-17.18116 -21.845288,6.08801 -41.140536,25.82469 -44.02642,49.17138 -0.420301,4.14462 3.77593,7.36828 8.031845,6.22006 L 125.68712,6.3537386 c 11.49394,-1.64561 14.34744,3.2120903 15.88449,8.8081604 1.36369,4.96485 -2.19892,11.49514 -8.306,13.25341 l -49.928628,14.37476 c -3.850497,1.10858 -5.989671,4.65405 -3.584442,7.69105 14.475091,18.27957 39.97713,27.17974 64.65283,20.52137 23.09331,-6.23159 39.16183,-24.54239 42.68571,-45.54954 l 31.26286,-8.43566 61.64111,-16.63392038 28.37528,-7.65648002 c 22.89182,19.2314704 45.5746,22.4679104 67.18917,15.0185303 19.2943,-6.6497103 34.50369,-26.3660099 36.56251,-46.6781399 0.24938,-2.46095 -1.12903,-4.59699 -3.18072,-5.68601 -1.40378,-0.74513 -3.12245,-1.00027 -4.85143,-0.53355 l -47.75604,12.56785 c -8.02951,1.40932 -13.41534,-3.28619 -14.8993,-8.58157 -1.38906,-4.95675 1.7867,-11.79482 7.92584,-13.45142 l 50.47835,-13.62128 c 3.87086,-1.04474 5.4398,-5.40729 3.03473,-8.44454 -5.20187,-6.5694 -11.82789,-11.92679 -19.32804,-15.78652 -13.36985,-6.88042 -29.51718,-9.000289 -45.3248,-4.73484 -23.17668,6.25387 -39.27837,24.67455 -42.72404,45.77722 l -28.93308,7.80741 z" /><g
       transform="matrix(0.8499012,0,0,0.84971787,17.614943,-331.09059)"
       style="clip-rule:nonzero;fill:none;fill-rule:nonzero;stroke:#ffffff;stroke-width:12.46510029;stroke-linecap:round;stroke-linejoin:round;stroke-miterlimit:4"
       id="Layer_x0020_3"><path
         inkscape:connector-curvature="0"
         id="path3"
         d="m 323.205,324.227 c 2.833,-23.601 1.984,-27.062 19.563,-23.239 l 4.463,0.392 c 13.517,0.615 31.199,-2.174 41.587,-7 22.362,-10.376 35.622,-27.7 13.572,-23.148 -50.297,10.376 -53.755,-6.655 -53.755,-6.655 C 401.746,185.774 423.948,85.741 404.784,61.255 352.514,-5.534 262.036,26.049 260.522,26.869 l -0.482,0.089 c -9.938,-2.062 -21.06,-3.294 -33.554,-3.496 -22.761,-0.374 -40.032,5.967 -53.133,15.904 0,0 -161.408,-66.498 -153.899,83.628 1.597,31.936 45.777,241.655 98.47,178.31 19.259,-23.163 37.871,-42.748 37.871,-42.748 9.242,6.14 20.307,9.272 31.912,8.147 l 0.897,-0.765 c -0.281,2.876 -0.157,5.689 0.359,9.019 -13.572,15.167 -9.584,17.83 -36.723,23.416 -27.457,5.659 -11.326,15.734 -0.797,18.367 12.768,3.193 42.305,7.716 62.268,-20.224 l -0.795,3.188 c 5.325,4.26 4.965,30.619 5.72,49.452 0.756,18.834 2.017,36.409 5.856,46.771 3.839,10.36 8.369,37.05 44.036,29.406 29.809,-6.388 52.6,-15.582 54.677,-101.107"
         style="fill:#000000;stroke:#000000;stroke-width:37.39530182;stroke-linecap:butt;stroke-linejoin:miter" /><path
         inkscape:connector-curvature="0"
         id="path5"
         d="m 402.395,271.23 c -50.302,10.376 -53.76,-6.655 -53.76,-6.655 53.111,-78.808 75.313,-178.843 56.153,-203.326 -52.27,-66.785 -142.752,-35.2 -144.262,-34.38 l -0.486,0.087 c -9.938,-2.063 -21.06,-3.292 -33.56,-3.496 -22.761,-0.373 -40.026,5.967 -53.127,15.902 0,0 -161.411,-66.495 -153.904,83.63 1.597,31.938 45.776,241.657 98.471,178.312 19.26,-23.163 37.869,-42.748 37.869,-42.748 9.243,6.14 20.308,9.272 31.908,8.147 l 0.901,-0.765 c -0.28,2.876 -0.152,5.689 0.361,9.019 -13.575,15.167 -9.586,17.83 -36.723,23.416 -27.459,5.659 -11.328,15.734 -0.796,18.367 12.768,3.193 42.307,7.716 62.266,-20.224 l -0.796,3.188 c 5.319,4.26 9.054,27.711 8.428,48.969 -0.626,21.259 -1.044,35.854 3.147,47.254 4.191,11.4 8.368,37.05 44.042,29.406 29.809,-6.388 45.256,-22.942 47.405,-50.555 1.525,-19.631 4.976,-16.729 5.194,-34.28 l 2.768,-8.309 c 3.192,-26.611 0.507,-35.196 18.872,-31.203 l 4.463,0.392 c 13.517,0.615 31.208,-2.174 41.591,-7 22.358,-10.376 35.618,-27.7 13.573,-23.148 z"
         style="fill:#336791;stroke:none" /><path
         inkscape:connector-curvature="0"
         id="path7"
         d="m 215.866,286.484 c -1.385,49.516 0.348,99.377 5.193,111.495 4.848,12.118 15.223,35.688 50.9,28.045 29.806,-6.39 40.651,-18.756 45.357,-46.051 3.466,-20.082 10.148,-75.854 11.005,-87.281" /><path
         inkscape:connector-curvature="0"
         id="path9"
         d="m 173.104,38.256 c 0,0 -161.521,-66.016 -154.012,84.109 1.597,31.938 45.779,241.664 98.473,178.316 19.256,-23.166 36.671,-41.335 36.671,-41.335" /><path
         inkscape:connector-curvature="0"
         id="path11"
         d="m 260.349,26.207 c -5.591,1.753 89.848,-34.889 144.087,34.417 19.159,24.484 -3.043,124.519 -56.153,203.329" /><path
         inkscape:connector-curvature="0"
         id="path13"
         d="m 348.282,263.953 c 0,0 3.461,17.036 53.764,6.653 22.04,-4.552 8.776,12.774 -13.577,23.155 -18.345,8.514 -59.474,10.696 -60.146,-1.069 -1.729,-30.355 21.647,-21.133 19.96,-28.739 -1.525,-6.85 -11.979,-13.573 -18.894,-30.338 -6.037,-14.633 -82.796,-126.849 21.287,-110.183 3.813,-0.789 -27.146,-99.002 -124.553,-100.599 -97.385,-1.597 -94.19,119.762 -94.19,119.762"
         style="stroke-linejoin:bevel" /><path
         inkscape:connector-curvature="0"
         id="path15"
         d="m 188.604,274.334 c -13.577,15.166 -9.584,17.829 -36.723,23.417 -27.459,5.66 -11.326,15.733 -0.797,18.365 12.768,3.195 42.307,7.718 62.266,-20.229 6.078,-8.509 -0.036,-22.086 -8.385,-25.547 -4.034,-1.671 -9.428,-3.765 -16.361,3.994 z" /><path
         inkscape:connector-curvature="0"
         id="path17"
         d="m 187.715,274.069 c -1.368,-8.917 2.93,-19.528 7.536,-31.942 6.922,-18.626 22.893,-37.255 10.117,-96.339 -9.523,-44.029 -73.396,-9.163 -73.436,-3.193 -0.039,5.968 2.889,30.26 -1.067,58.548 -5.162,36.913 23.488,68.132 56.479,64.938" /><path
         inkscape:connector-curvature="0"
         id="path19"
         d="m 172.517,141.7 c -0.288,2.039 3.733,7.48 8.976,8.207 5.234,0.73 9.714,-3.522 9.998,-5.559 0.284,-2.039 -3.732,-4.285 -8.977,-5.015 -5.237,-0.731 -9.719,0.333 -9.996,2.367 z"
         style="fill:#ffffff;stroke-width:4.15500021;stroke-linecap:butt;stroke-linejoin:miter" /><path
         inkscape:connector-curvature="0"
         id="path21"
         d="m 331.941,137.543 c 0.284,2.039 -3.732,7.48 -8.976,8.207 -5.238,0.73 -9.718,-3.522 -10.005,-5.559 -0.277,-2.039 3.74,-4.285 8.979,-5.015 5.239,-0.73 9.718,0.333 10.002,2.368 z"
         style="fill:#ffffff;stroke-width:2.0775001;stroke-linecap:butt;stroke-linejoin:miter" /><path
         inkscape:connector-curvature="0"
         id="path23"
         d="m 350.676,123.432 c 0.863,15.994 -3.445,26.888 -3.988,43.914 -0.804,24.748 11.799,53.074 -7.191,81.435" /><path
         inkscape:connector-curvature="0"
         id="path25"
         d="M 0,60.232"
         style="stroke-width:3" /></g></g></svg>